Sceenshots:
 
http://img441.imageshack.us/img441/1727/bscap0001yq.jpg 
http://img849.imageshack.us/img849/3117/bscap0018n.jpg 
http://img829.imageshack.us/img829/7272/bscap0016e.jpg 
http://img808.imageshack.us/img808/9435/bscap0028d.jpg

SUBTITLES: ENGLISH e PORTUGUESE

[url=http://www.imdb.com/title/tt0079548/ ]http://www.imdb.com/title/tt0079548/ [/url]

      Format : AVI
      Format/Info : Audio Video Interleave
      File size : 1 36 GB (2 CDs)
      Duration : 1h 0mn
      Overall bit rate : 1 608 Kbps
      Writing application : VirtualDubMod 1.5.4.1 (build 2178/release)
      Writing library : VirtualDubMod build 2178/release
   Video #0
      ID : 0
      Format : MPEG-4 Visual
      Format settings, BVOP : No
      Format settings, QPel : No
      Format settings, GMC : No warppoints
      Format settings, Matrix : Default (H.263)
      Codec ID : DX50
      Codec ID/Hint : DivX 5
      Duration : 1h 0mn
      Bit rate : 1 505 Kbps
      Width : 640 pixels
      Height : 416 pixels
      Display aspect ratio : 1.538
      Frame rate : 25.000 fps
      Resolution : 24 bits
      Colorimetry : 4:2:0
      Scan type : Progressive
      Bits/(Pixel*Frame) : 0.226
      Stream size : 654 MiB (94%)
      Writing library : DivX 5.1.1 (Maupiti) (UTC 2003-11-19)
   Audio #1
      ID : 1
      Format : MPEG Audio
      Format version : Version 1
      Format profile : Layer 3
      Codec ID : 55
      Codec ID/Hint : MP3
      Duration : 1h 0mn
      Bit rate mode : Constant
      Bit rate : 96.0 Kbps
      Channel(s) : 1 channel
      Sampling rate : 48.0 KHz
      Resolution : 16 bits
      Stream size : 41.7 MiB (6%)
      Alignment : Aligned on interleaves
      Interleave, duration : 80 ms (2.00 video frames)
      Interleave, preload duration : 504 ms
      Writing library : LAME3.96r
      Encoding settings : -m m -V 4 -q 2 -lowpass 20.5 -b 96
      Language : French / French / French